name D:\school\WTK\thesis\model\3dpredictsim\Results\batch_windlass\Pog_s1_tmt_aCst_d05_k500_WL10_ig24.mot
datacolumns 128
datarows 4
range 0.51913772 0.55028598
endheader
time	pelvis_tilt	pelvis_list	pelvis_rotation	pelvis_tx	pelvis_ty	pelvis_tz	hip_flexion_l	hip_adduction_l	hip_rotation_l	hip_flexion_r	hip_adduction_r	hip_rotation_r	knee_angle_l	knee_angle_r	ankle_angle_l	ankle_angle_r	subtalar_angle_l	subtalar_angle_r	tmt_angle_l	tmt_angle_r	mtp_angle_l	mtp_angle_r	lumbar_extension	lumbar_bending	lumbar_rotation	arm_flex_l	arm_add_l	arm_rot_l	arm_flex_r	arm_add_r	arm_rot_r	elbow_flex_l	elbow_flex_r	pro_sup_l	pro_sup_r	glut_med1_l/activation	glut_med2_l/activation	glut_med3_l/activation	glut_min1_l/activation	glut_min2_l/activation	glut_min3_l/activation	semimem_l/activation	semiten_l/activation	bifemlh_l/activation	bifemsh_l/activation	sar_l/activation	add_long_l/activation	add_brev_l/activation	add_mag1_l/activation	add_mag2_l/activation	add_mag3_l/activation	tfl_l/activation	pect_l/activation	grac_l/activation	glut_max1_l/activation	glut_max2_l/activation	glut_max3_l/activation	iliacus_l/activation	psoas_l/activation	quad_fem_l/activation	gem_l/activation	peri_l/activation	rect_fem_l/activation	vas_med_l/activation	vas_int_l/activation	vas_lat_l/activation	med_gas_l/activation	lat_gas_l/activation	soleus_l/activation	tib_post_l/activation	flex_dig_l/activation	flex_hal_l/activation	tib_ant_l/activation	per_brev_l/activation	per_long_l/activation	per_tert_l/activation	ext_dig_l/activation	ext_hal_l/activation	ercspn_l/activation	intobl_l/activation	extobl_l/activation	glut_med1_r/activation	glut_med2_r/activation	glut_med3_r/activation	glut_min1_r/activation	glut_min2_r/activation	glut_min3_r/activation	semimem_r/activation	semiten_r/activation	bifemlh_r/activation	bifemsh_r/activation	sar_r/activation	add_long_r/activation	add_brev_r/activation	add_mag1_r/activation	add_mag2_r/activation	add_mag3_r/activation	tfl_r/activation	pect_r/activation	grac_r/activation	glut_max1_r/activation	glut_max2_r/activation	glut_max3_r/activation	iliacus_r/activation	psoas_r/activation	quad_fem_r/activation	gem_r/activation	peri_r/activation	rect_fem_r/activation	vas_med_r/activation	vas_int_r/activation	vas_lat_r/activation	med_gas_r/activation	lat_gas_r/activation	soleus_r/activation	tib_post_r/activation	flex_dig_r/activation	flex_hal_r/activation	tib_ant_r/activation	per_brev_r/activation	per_long_r/activation	per_tert_r/activation	ext_dig_r/activation	ext_hal_r/activation	ercspn_r/activation	intobl_r/activation	extobl_r/activation	
          0.51913772	         -2.92528942	          1.31512745	         -5.61475639	          0.64892215	          0.85749941	          0.00199848	         31.34014057	          2.77218474	         -1.06402866	        -18.17266633	         -1.03125348	          8.18520344	        -19.23250231	         -8.97328585	         -3.12552556	         -2.09731036	         -4.61959972	          9.55780521	          0.08393682	          0.11305934	          0.06881571	         25.24669233	         -0.86637162	          0.47793775	          1.57477158	         -7.99717298	        -13.58054057	          7.46695349	          4.24486407	        -13.46227150	         14.69543360	         17.94802083	         31.88189013	         86.51662706	         86.51662706	          0.05000287	          0.05000088	          0.05666950	          0.05000065	          0.05000082	          0.05000226	          0.05865239	          0.05865261	          0.08440440	          0.05000124	          0.05000096	          0.11105248	          0.17231265	          0.17236868	          0.17522310	          0.12539026	          0.05000172	          0.05009548	          0.05878477	          0.05836125	          0.11632286	          0.11836960	          0.05780767	          0.05798899	          0.19886463	          0.05000183	          0.05000057	          0.05000018	          0.11380141	          0.11728586	          0.09749326	          0.05865233	          0.05865235	          0.05865229	          0.05000003	          0.05864968	          0.05635821	          0.35716884	          0.25960804	          0.15173464	          0.35842629	          0.61173546	          0.05000022	          0.05531537	          0.12160261	          0.11688822	          0.28960856	          0.08071850	          0.05785800	          0.32594104	          0.18800870	          0.08954297	          0.05000343	          0.05000033	          0.05000024	          0.07191634	          0.09467119	          0.07284931	          0.05000076	          0.05000072	          0.05000200	          0.05000103	          0.26343923	          0.05000826	          0.05000105	          0.05000483	          0.05000326	          0.05000234	          0.34582898	          0.52885092	          0.05000036	          0.05000101	          0.05000018	          0.19333841	          0.08739803	          0.08029705	          0.07964824	          0.30302093	          0.38656695	          0.26933304	          0.21450250	          0.18647908	          0.28231459	          0.05000002	          0.06459390	          0.15170587	          0.05000019	          0.05000005	          0.05000018	          0.05000003	          0.05000008	          0.05000007	
          0.52952047	         -2.91577082	          1.43212674	         -5.89405682	          0.66461617	          0.85641330	          0.00182671	         30.77137326	          3.17884000	         -0.82871137	        -17.97088256	         -1.35135545	          7.94549133	        -19.17801262	        -10.87983594	         -3.58586134	         -2.82659194	         -5.41799882	         10.58447965	          0.07686614	         -0.51668138	          0.19921489	         26.31601117	         -0.67636730	          0.23756904	          1.62861059	         -8.90995139	        -13.57838995	          7.27808985	          4.05278374	        -13.48218515	         15.06151862	         17.79512730	         32.72895603	         86.51662706	         86.51662706	          0.05000098	          0.05000064	          0.05000029	          0.05000085	          0.05000088	          0.05000045	          0.05000014	          0.05000046	          0.07195325	          0.05000040	          0.05000365	          0.09467244	          0.14689447	          0.28896241	          0.21892672	          0.12036420	          0.05000084	          0.05000764	          0.05011368	          0.05001323	          0.11700789	          0.11538336	          0.05000092	          0.05865309	          0.37998601	          0.06470730	          0.05000154	          0.06880188	          0.23766638	          0.22769624	          0.19802360	          0.05000004	          0.05000007	          0.05000000	          0.05000081	          0.05000125	          0.05000028	          0.49441592	          0.22131111	          0.12935101	          0.42840245	          0.63988507	          0.07188438	          0.05000002	          0.10366400	          0.09964507	          0.24688610	          0.06881106	          0.05000021	          0.27785915	          0.16027402	          0.07633378	          0.05000768	          0.05000102	          0.05000171	          0.06130739	          0.08070583	          0.16581980	          0.10213513	          0.05031062	          0.05001050	          0.06154433	          0.22457723	          0.08777708	          0.05000269	          0.05000213	          0.05000148	          0.05000147	          0.29481290	          0.45083602	          0.05000029	          0.05000373	          0.05865213	          0.16481746	          0.07450603	          0.15281718	          0.15281676	          0.25831976	          0.32954122	          0.22960145	          0.18285952	          0.15897027	          0.24066816	          0.05000006	          0.05506522	          0.12932679	          0.05000026	          0.05000013	          0.05000026	          0.05000002	          0.06880188	          0.05452279	
          0.53990323	         -2.90234504	          1.55640380	         -6.15083105	          0.68058179	          0.85526948	          0.00166244	         30.03926618	          3.56194890	         -0.51762163	        -17.69279306	         -1.66830792	          7.69349006	        -19.61363015	        -12.91959023	         -3.79166255	         -3.66783258	         -6.26682714	         11.54733930	         -0.10564452	         -1.15590030	          0.29295392	         27.14596308	         -0.46413101	         -0.01661333	          1.67367272	         -9.83669542	        -13.58146069	          7.14303865	          3.79361112	        -13.50823998	         15.37979207	         17.65509613	         33.56101386	         86.51662706	         86.51662706	          0.29052984	          0.05000027	          0.33478906	          0.05000168	          0.05000069	          0.28404867	          0.08348780	          0.05000035	          0.09436784	          0.05000010	          0.05000064	          0.08070787	          0.19727965	          0.24633563	          0.18710202	          0.15009989	          0.05000052	          0.06379319	          0.06406412	          0.05000021	          0.17128382	          0.10685168	          0.05455060	          0.05000148	          0.32393115	          0.05516203	          0.14998459	          0.05865236	          0.20260840	          0.20905783	          0.17863876	          0.05865232	          0.05865235	          0.05865232	          0.07301657	          0.05000154	          0.05865131	          0.43907231	          0.18866370	          0.11026938	          0.36520544	          0.60682087	          0.06128013	          0.05000004	          0.09467425	          0.08494559	          0.38713406	          0.05866018	          0.05000017	          0.23687848	          0.13663072	          0.06507319	          0.05483109	          0.05000037	          0.05000032	          0.05226348	          0.06880063	          0.16418244	          0.24748871	          0.05864390	          0.05067193	          0.05246723	          0.19144830	          0.08075604	          0.05000181	          0.05001200	          0.05000835	          0.05000951	          0.25132265	          0.42663928	          0.05000075	          0.05000088	          0.05000010	          0.14050386	          0.11022535	          0.13027414	          0.13027373	          0.22021283	          0.28092783	          0.19573101	          0.15588441	          0.13551937	          0.20516527	          0.09393668	          0.08446391	          0.16094243	          0.05000029	          0.13850622	          0.05000251	          0.06292021	          0.05865235	          0.05865248	
          0.55028598	         -2.88734070	          1.68293874	         -6.37884577	          0.69661859	          0.85412880	          0.00149100	         29.15970543	          3.92558386	         -0.19979920	        -17.31094267	         -1.97212029	          7.43819365	        -20.02371472	        -15.12200496	         -3.78898431	         -4.57888668	         -7.14217179	         12.42802398	         -0.27410477	         -1.74184538	          0.37556569	         27.51045661	         -0.24867228	         -0.27659863	          1.70901191	        -10.72884164	        -13.58806407	          7.08793057	          3.49923838	        -13.53964460	         15.66000530	         17.49601102	         34.36012669	         86.51662706	         86.51662706	          0.35750470	          0.33932367	          0.45934651	          0.19120300	          0.22359385	          0.24214767	          0.07117204	          0.10608568	          0.08044828	          0.06880234	          0.05000123	          0.06880204	          0.16817733	          0.20999707	          0.19159257	          0.16821980	          0.05000030	          0.05438311	          0.09766981	          0.25918660	          0.22533855	          0.16208134	          0.05000010	          0.05000011	          0.27614553	          0.05006832	          0.12786005	          0.05000008	          0.26027040	          0.27845386	          0.23744200	          0.05000009	          0.05000019	          0.05000004	          0.12290391	          0.05000158	          0.05000057	          0.55779185	          0.16083236	          0.09400264	          0.34629528	          0.59766225	          0.32976284	          0.05954305	          0.08070807	          0.07241456	          0.33002479	          0.05000675	          0.05000003	          0.24473715	          0.11647525	          0.05547376	          0.07448660	          0.05000035	          0.05000028	          0.05000027	          0.05865251	          0.19429193	          0.21098119	          0.05000112	          0.05000128	          0.05000267	          0.16320676	          0.06884688	          0.05000037	          0.05000082	          0.05000053	          0.05000039	          0.21424798	          0.37969733	          0.05000005	          0.05000029	          0.05000013	          0.11977698	          0.09396530	          0.11105645	          0.11105611	          0.18772738	          0.23948581	          0.16685708	          0.13288866	          0.11552794	          0.17489977	          0.14408156	          0.11868806	          0.13720062	          0.25536175	          0.22275925	          0.11813623	          0.09868480	          0.05000005	          0.05000019	
